<mxfile host="app.diagrams.net" modified="2023-10-11T17:43:00.762Z" agent="Mozilla/5.0 (Windows NT 10.0; Win64; x64) AppleWebKit/537.36 (KHTML, like Gecko) Chrome/117.0.0.0 Safari/537.36" etag="-qLwsOBP3aXNoo3xjgVt" version="22.0.4" type="device">
  <diagram name="Pàgina-1" id="5p1RK1gfJNGb53cNKMp1">
    <mxGraphModel dx="2074" dy="1118" grid="1" gridSize="10" guides="1" tooltips="1" connect="1" arrows="1" fold="1" page="1" pageScale="1" pageWidth="1654" pageHeight="1169" math="0" shadow="0">
      <root>
        <mxCell id="0" />
        <mxCell id="1" parent="0" />
        <mxCell id="gsU7J_CmsxOtAL61VXyF-11" style="rounded=0;orthogonalLoop=1;jettySize=auto;html=1;endArrow=ERone;endFill=0;startArrow=none;startFill=0;startSize=12;endSize=12;" parent="1" source="j3-HeXubiyxGwx1jwGXP-15" target="JUkhmFqKWtLOI3Ql3iOZ-1" edge="1">
          <mxGeometry relative="1" as="geometry">
            <mxPoint x="400" y="780" as="sourcePoint" />
            <mxPoint x="320" y="780" as="targetPoint" />
          </mxGeometry>
        </mxCell>
        <mxCell id="j3-HeXubiyxGwx1jwGXP-4" value="PERMIS" style="whiteSpace=wrap;html=1;align=center;strokeWidth=2;fontSize=16;fontStyle=1" parent="1" vertex="1">
          <mxGeometry x="600" y="760" width="120" height="40" as="geometry" />
        </mxCell>
        <mxCell id="j3-HeXubiyxGwx1jwGXP-7" value="Data obtenció" style="ellipse;whiteSpace=wrap;html=1;align=center;" parent="1" vertex="1">
          <mxGeometry x="680" y="700" width="100" height="40" as="geometry" />
        </mxCell>
        <mxCell id="j3-HeXubiyxGwx1jwGXP-8" value="Número" style="ellipse;whiteSpace=wrap;html=1;align=center;fontStyle=4" parent="1" vertex="1">
          <mxGeometry x="540" y="700" width="100" height="40" as="geometry" />
        </mxCell>
        <mxCell id="j3-HeXubiyxGwx1jwGXP-10" style="rounded=0;orthogonalLoop=1;jettySize=auto;html=1;endArrow=none;endFill=0;" parent="1" source="j3-HeXubiyxGwx1jwGXP-7" target="j3-HeXubiyxGwx1jwGXP-4" edge="1">
          <mxGeometry relative="1" as="geometry">
            <mxPoint x="576" y="863" as="sourcePoint" />
            <mxPoint x="640" y="820" as="targetPoint" />
          </mxGeometry>
        </mxCell>
        <mxCell id="j3-HeXubiyxGwx1jwGXP-11" style="rounded=0;orthogonalLoop=1;jettySize=auto;html=1;endArrow=none;endFill=0;" parent="1" source="j3-HeXubiyxGwx1jwGXP-8" target="j3-HeXubiyxGwx1jwGXP-4" edge="1">
          <mxGeometry relative="1" as="geometry">
            <mxPoint x="586" y="873" as="sourcePoint" />
            <mxPoint x="650" y="830" as="targetPoint" />
          </mxGeometry>
        </mxCell>
        <mxCell id="j3-HeXubiyxGwx1jwGXP-15" value="té" style="rhombus;whiteSpace=wrap;html=1;" parent="1" vertex="1">
          <mxGeometry x="440" y="760" width="80" height="40" as="geometry" />
        </mxCell>
        <mxCell id="j3-HeXubiyxGwx1jwGXP-16" style="rounded=0;orthogonalLoop=1;jettySize=auto;html=1;endArrow=ERone;endFill=0;startSize=10;endSize=12;" parent="1" source="j3-HeXubiyxGwx1jwGXP-15" target="j3-HeXubiyxGwx1jwGXP-4" edge="1">
          <mxGeometry relative="1" as="geometry">
            <mxPoint x="480" y="780" as="sourcePoint" />
            <mxPoint x="370" y="790" as="targetPoint" />
          </mxGeometry>
        </mxCell>
        <mxCell id="JUkhmFqKWtLOI3Ql3iOZ-1" value="CONDUCTOR" style="whiteSpace=wrap;html=1;align=center;strokeWidth=2;fontSize=16;fontStyle=1" vertex="1" parent="1">
          <mxGeometry x="240" y="760" width="120" height="40" as="geometry" />
        </mxCell>
        <mxCell id="JUkhmFqKWtLOI3Ql3iOZ-2" value="Cognoms" style="ellipse;whiteSpace=wrap;html=1;align=center;" vertex="1" parent="1">
          <mxGeometry x="340" y="710" width="100" height="40" as="geometry" />
        </mxCell>
        <mxCell id="JUkhmFqKWtLOI3Ql3iOZ-3" value="ID" style="ellipse;whiteSpace=wrap;html=1;align=center;fontStyle=4" vertex="1" parent="1">
          <mxGeometry x="160" y="710" width="100" height="40" as="geometry" />
        </mxCell>
        <mxCell id="JUkhmFqKWtLOI3Ql3iOZ-4" style="rounded=0;orthogonalLoop=1;jettySize=auto;html=1;endArrow=none;endFill=0;" edge="1" parent="1" source="JUkhmFqKWtLOI3Ql3iOZ-2" target="JUkhmFqKWtLOI3Ql3iOZ-1">
          <mxGeometry relative="1" as="geometry">
            <mxPoint x="216" y="863" as="sourcePoint" />
            <mxPoint x="280" y="820" as="targetPoint" />
          </mxGeometry>
        </mxCell>
        <mxCell id="JUkhmFqKWtLOI3Ql3iOZ-5" style="rounded=0;orthogonalLoop=1;jettySize=auto;html=1;endArrow=none;endFill=0;" edge="1" parent="1" source="JUkhmFqKWtLOI3Ql3iOZ-3" target="JUkhmFqKWtLOI3Ql3iOZ-1">
          <mxGeometry relative="1" as="geometry">
            <mxPoint x="226" y="873" as="sourcePoint" />
            <mxPoint x="290" y="830" as="targetPoint" />
          </mxGeometry>
        </mxCell>
        <mxCell id="JUkhmFqKWtLOI3Ql3iOZ-6" value="Nom" style="ellipse;whiteSpace=wrap;html=1;align=center;" vertex="1" parent="1">
          <mxGeometry x="250" y="670" width="100" height="40" as="geometry" />
        </mxCell>
        <mxCell id="JUkhmFqKWtLOI3Ql3iOZ-7" style="rounded=0;orthogonalLoop=1;jettySize=auto;html=1;endArrow=none;endFill=0;" edge="1" parent="1" source="JUkhmFqKWtLOI3Ql3iOZ-6" target="JUkhmFqKWtLOI3Ql3iOZ-1">
          <mxGeometry relative="1" as="geometry">
            <mxPoint x="375" y="709" as="sourcePoint" />
            <mxPoint x="326" y="770" as="targetPoint" />
          </mxGeometry>
        </mxCell>
      </root>
    </mxGraphModel>
  </diagram>
</mxfile>
